{"glyphs":{":":{"x_min":0,"x_max":603,"ha":603,"o":"m 217 0 l 250 168 l 419 168 l 385 0 z m 289 361 l 323 530 l 491 530 l 458 361 z"},"$":{"x_min":0,"x_max":603,"ha":603,"o":"m 252 -78 l 269 2 q 187 2 78 38 l 99 145 q 199 95 286 90 l 333 322 l 311 339 q 250 386 233 408 q 215 431 205 456 q 196 481 196 509 q 196 581 253 645 q 311 710 413 722 l 428 801 l 506 801 l 491 722 q 567 718 640 691 l 621 593 q 548 631 474 638 l 430 419 l 449 404 q 525 348 548 314 q 570 280 570 238 q 570 163 511 90 q 452 18 347 1 l 331 -78 z m 351 96 q 392 108 416 137 q 439 166 439 199 q 439 212 436 223 q 432 235 422 248 q 412 260 387 281 z m 375 461 l 409 633 q 369 621 347 595 q 325 570 325 536 q 325 516 335 499 q 345 482 375 461 z"},"?":{"x_min":0,"x_max":603,"ha":603,"o":"m 171 0 l 196 121 l 340 121 l 316 0 z m 215 217 q 227 285 268 326 q 308 366 382 417 l 430 449 q 473 478 500 513 q 526 548 526 578 q 526 609 497 627 q 467 645 416 645 q 361 645 296 625 l 277 530 l 181 530 l 216 706 q 338 741 462 741 q 582 741 635 702 q 688 662 688 603 q 688 559 653 507 q 619 454 524 399 l 472 368 q 423 340 406 324 q 390 308 380 289 q 370 271 365 246 l 359 217 z"},"<":{"x_min":0,"x_max":603,"ha":603,"o":"m 664 518 l 643 414 l 298 259 l 580 101 l 560 0 l 94 259 z"},"'":{"x_min":0,"x_max":603,"ha":603,"o":"m 344 458 l 371 771 l 540 771 l 441 458 z"},"=":{"x_min":0,"x_max":603,"ha":603,"o":"m 65 114 l 83 205 l 601 205 l 583 114 z m 104 313 l 123 404 l 641 404 l 623 313 z"},"a":{"x_min":0,"x_max":603,"ha":603,"o":"m 376 56 q 344 22 305 5 q 266 -12 220 -12 q 155 -12 113 23 q 71 59 71 117 q 71 180 109 233 q 140 278 200 308 q 259 337 390 337 l 446 337 l 452 363 q 454 374 454 384 q 454 415 428 430 q 403 446 353 446 q 314 446 268 435 q 223 423 170 400 l 191 506 q 244 524 296 533 q 349 542 400 542 q 501 542 551 507 q 600 473 600 415 q 600 383 590 332 l 554 152 q 549 128 549 120 q 549 108 557 103 q 565 97 576 97 q 582 97 593 100 l 574 3 q 526 -12 491 -12 q 455 -12 428 3 q 414 11 406 21 q 397 30 390 56 z m 410 154 l 427 241 l 375 241 q 280 241 249 210 q 218 179 218 150 q 218 125 236 110 q 254 96 280 96 q 302 96 337 110 q 371 124 410 154 z"},"L":{"x_min":0,"x_max":603,"ha":603,"o":"m 105 0 l 250 723 l 395 723 l 269 96 l 606 96 l 587 0 z"},"3":{"x_min":0,"x_max":603,"ha":603,"o":"m 100 8 l 121 113 q 187 78 248 78 q 288 78 325 98 q 361 118 382 151 q 403 184 403 222 q 403 279 357 304 q 311 329 249 329 l 230 329 l 250 426 l 261 426 q 329 426 373 447 q 416 467 440 502 q 463 536 463 576 q 463 610 441 627 q 419 645 375 645 q 316 645 229 610 l 250 713 q 312 734 349 738 q 385 741 420 741 q 520 741 566 698 q 611 656 611 599 q 611 555 590 512 q 568 470 528 439 q 487 409 415 388 q 475 371 503 348 q 532 325 546 294 q 561 263 561 228 q 561 162 516 104 q 472 46 399 14 q 326 -18 245 -18 q 223 -18 195 -15 q 168 -13 149 -9 q 130 -4 100 8 z"},";":{"x_min":0,"x_max":603,"ha":603,"o":"m 188 -145 l 201 -78 q 230 -76 245 -69 q 259 -63 268 -49 q 276 -34 278 -23 l 283 0 l 217 0 l 250 168 l 419 168 l 392 32 q 377 -40 351 -77 q 324 -113 288 -129 q 252 -145 188 -145 z m 289 361 l 323 530 l 491 530 l 458 361 z"},"J":{"x_min":0,"x_max":603,"ha":603,"o":"m 76 -2 l 98 109 q 185 80 253 80 q 290 80 324 96 q 359 111 381 141 q 404 170 420 253 l 495 626 l 254 626 l 273 723 l 659 723 l 569 275 q 543 146 502 90 q 461 34 398 8 q 334 -18 241 -18 q 156 -18 76 -2 z"},"V":{"x_min":0,"x_max":603,"ha":603,"o":"m 219 0 l 151 723 l 302 723 l 353 180 l 637 723 l 740 723 l 363 0 z"},"\"":{"x_min":0,"x_max":603,"ha":603,"o":"m 217 482 l 251 771 l 396 771 l 313 482 z m 482 482 l 516 771 l 660 771 l 579 482 z"},"7":{"x_min":0,"x_max":603,"ha":603,"o":"m 140 0 q 162 91 216 180 q 270 270 340 356 l 539 603 l 230 603 l 254 723 l 682 723 l 658 603 l 630 572 q 515 440 455 355 q 396 271 350 181 q 305 91 285 0 z"},"S":{"x_min":0,"x_max":603,"ha":603,"o":"m 52 6 l 76 127 q 181 81 277 81 q 324 81 365 97 q 406 113 428 141 q 451 170 451 200 q 451 216 442 233 q 433 251 383 282 l 263 355 q 191 399 172 434 q 152 469 152 510 q 152 598 230 669 q 307 741 463 741 q 569 741 660 717 l 637 603 q 596 621 568 628 q 541 635 508 640 q 475 645 447 645 q 375 645 335 619 q 294 593 294 555 q 294 539 302 525 q 309 510 346 488 l 479 408 q 541 371 574 333 q 607 293 607 236 q 607 170 566 109 q 525 48 452 15 q 378 -18 261 -18 q 165 -18 52 6 z"},"}":{"x_min":0,"x_max":603,"ha":603,"o":"m 357 313 q 271 345 271 426 q 271 457 297 521 l 318 575 l 329 603 q 337 624 337 636 q 337 675 263 675 l 207 675 l 227 771 l 292 771 q 396 771 438 744 q 479 716 479 663 q 479 630 453 569 l 421 497 q 401 452 401 423 q 401 394 424 378 q 447 361 509 361 l 566 361 l 547 265 l 490 265 q 438 265 408 253 q 378 242 363 215 q 348 188 348 129 l 350 57 q 350 -27 323 -66 q 296 -105 248 -125 q 199 -145 109 -145 l 43 -145 l 62 -48 l 118 -48 q 163 -48 179 -41 q 195 -33 204 -17 q 213 -2 213 24 l 213 51 l 214 105 q 214 175 231 211 q 248 247 281 273 q 313 299 357 313 z"},"Z":{"x_min":0,"x_max":603,"ha":603,"o":"m 42 0 l 62 98 l 502 626 l 187 626 l 206 723 l 692 723 l 673 626 l 234 96 l 567 96 l 548 0 z"},"x":{"x_min":0,"x_max":603,"ha":603,"o":"m 33 0 l 277 271 l 144 530 l 320 530 l 400 372 l 547 530 l 667 530 l 441 287 l 583 0 l 410 0 l 319 186 l 150 0 z"},")":{"x_min":0,"x_max":603,"ha":603,"o":"m 214 771 q 324 757 389 711 q 455 666 491 590 q 528 514 528 417 q 528 282 462 156 q 397 30 286 -51 q 174 -131 31 -145 l 50 -48 q 70 -45 80 -43 q 129 -33 178 -1 q 227 31 265 76 q 326 148 355 245 q 384 341 384 428 q 384 517 339 586 q 294 654 195 675 z"},"&":{"x_min":0,"x_max":603,"ha":603,"o":"m 438 0 q 429 12 421 28 l 413 42 q 377 15 331 -1 q 284 -18 233 -18 q 138 -18 95 34 q 53 86 53 154 q 53 232 101 302 q 149 372 255 422 l 250 435 q 218 525 218 569 q 218 612 248 653 q 277 695 326 718 q 374 741 433 741 q 501 741 543 711 q 584 681 584 620 q 584 575 545 516 q 505 457 413 409 q 459 270 493 206 q 523 248 534 282 q 546 316 562 395 q 564 407 569 431 l 690 431 q 667 316 634 256 q 602 196 533 128 l 540 114 q 580 34 602 0 z m 382 481 q 423 514 442 548 q 461 582 461 606 q 461 626 449 637 q 436 647 422 647 q 398 647 378 627 q 358 606 358 574 q 358 547 375 499 z m 377 118 q 361 149 331 220 q 301 292 284 344 q 206 285 206 191 q 206 149 233 122 q 260 94 297 94 q 335 94 377 118 z"},"_":{"x_min":0,"x_max":603,"ha":603,"o":"m -21 -108 l 0 0 l 603 0 l 581 -108 z"},"v":{"x_min":0,"x_max":603,"ha":603,"o":"m 233 0 l 131 530 l 286 530 l 359 145 l 590 530 l 695 530 l 377 0 z"},"O":{"x_min":0,"x_max":603,"ha":603,"o":"m 294 -18 q 179 -18 125 51 q 70 120 70 225 q 70 347 114 470 q 158 594 243 668 q 329 741 443 741 q 573 741 625 670 q 677 600 677 498 q 677 376 633 252 q 589 128 504 55 q 419 -18 294 -18 z m 317 78 q 376 78 422 136 q 468 194 496 317 q 525 439 525 504 q 525 574 500 609 q 475 645 431 645 q 374 645 327 590 q 281 535 252 410 q 222 285 222 219 q 222 149 247 114 q 272 78 317 78 z"},"(":{"x_min":0,"x_max":603,"ha":603,"o":"m 517 -145 q 406 -130 341 -84 q 276 -39 239 37 q 203 113 203 210 q 203 344 268 471 q 334 597 446 677 q 557 758 700 771 l 680 675 q 661 672 651 670 q 602 659 553 627 q 504 595 466 551 q 404 479 375 382 q 346 285 346 199 q 346 109 391 40 q 437 -28 536 -48 z"},"C":{"x_min":0,"x_max":603,"ha":603,"o":"m 586 21 q 464 -19 363 -19 q 238 -19 162 54 q 86 127 86 264 q 86 384 140 496 q 194 607 289 674 q 384 741 542 741 q 642 741 726 719 l 703 602 q 599 645 528 645 q 455 645 393 604 q 331 563 287 468 q 243 372 243 280 q 243 192 290 138 q 337 84 415 84 q 498 84 609 132 z"},"W":{"x_min":0,"x_max":603,"ha":603,"o":"m 100 0 l 149 723 l 277 723 l 242 265 l 243 265 l 377 530 l 473 530 l 496 251 l 497 251 l 650 723 l 747 723 l 506 0 l 397 0 l 373 347 l 372 347 l 199 0 z"},"A":{"x_min":0,"x_max":603,"ha":603,"o":"m 10 0 l 389 723 l 533 723 l 592 0 l 442 0 l 426 184 l 208 184 l 111 0 z m 255 274 l 420 274 l 398 546 z"},"f":{"x_min":0,"x_max":603,"ha":603,"o":"m 201 0 l 285 422 l 183 422 l 202 518 l 305 518 l 320 594 q 338 687 407 737 q 443 764 484 773 q 524 783 577 783 q 667 783 750 763 l 730 659 q 643 687 587 687 q 531 687 499 662 q 485 651 478 637 q 470 624 464 592 l 449 518 l 654 518 l 635 422 l 430 422 l 346 0 z"},"Q":{"x_min":0,"x_max":603,"ha":603,"o":"m 439 12 q 480 -11 538 -22 q 595 -33 632 -33 l 511 -133 q 436 -111 380 -69 l 340 -37 q 334 -33 313 -18 l 297 -18 q 177 -18 124 52 q 70 121 70 225 q 70 346 114 470 q 158 594 243 668 q 329 741 443 741 q 573 741 625 670 q 677 600 677 497 q 677 402 648 300 q 619 197 571 130 q 524 63 439 12 z m 317 78 q 376 78 422 136 q 468 194 496 317 q 525 439 525 504 q 525 574 500 609 q 475 645 430 645 q 373 645 327 589 q 280 533 251 409 q 222 285 222 219 q 222 149 247 114 q 272 78 317 78 z"},"w":{"x_min":0,"x_max":603,"ha":603,"o":"m 94 0 l 111 530 l 239 530 l 225 205 l 226 205 l 363 482 l 463 482 l 489 203 l 490 203 l 606 530 l 704 530 l 509 0 l 395 0 l 367 322 l 366 322 l 208 0 z"},"-":{"x_min":0,"x_max":603,"ha":603,"o":"m 154 259 l 173 355 l 571 355 l 552 259 z"},"E":{"x_min":0,"x_max":603,"ha":603,"o":"m 82 0 l 227 723 l 678 723 l 659 626 l 352 626 l 311 422 l 570 422 l 552 332 l 293 332 l 246 96 l 579 96 l 560 0 z"},"s":{"x_min":0,"x_max":603,"ha":603,"o":"m 81 18 l 103 127 q 216 84 288 84 q 344 84 376 103 q 408 122 408 153 q 408 177 366 195 l 261 240 q 154 287 154 358 q 154 404 189 449 q 222 489 279 516 q 337 542 446 542 q 516 542 605 522 l 583 411 q 491 446 421 446 q 371 446 341 431 q 312 417 312 394 q 312 381 323 372 q 333 363 373 346 l 488 294 q 531 275 552 251 q 573 226 573 185 q 573 130 535 83 q 497 37 435 12 q 372 -12 294 -12 q 270 -12 230 -9 q 191 -5 162 0 q 134 5 81 18 z"},">":{"x_min":0,"x_max":603,"ha":603,"o":"m 42 0 l 62 104 l 407 259 l 125 417 l 146 518 l 612 259 z"},"l":{"x_min":0,"x_max":603,"ha":603,"o":"m 241 0 l 376 675 l 183 675 l 203 771 l 540 771 l 386 0 z"},"8":{"x_min":0,"x_max":603,"ha":603,"o":"m 293 390 q 209 458 209 524 q 209 577 244 628 q 278 680 336 710 q 395 741 467 741 q 543 741 588 704 q 632 668 632 604 q 632 552 598 499 q 563 447 480 402 q 541 347 567 304 q 593 261 593 218 q 593 160 554 104 q 515 47 450 14 q 385 -18 299 -18 q 200 -18 148 26 q 97 69 97 146 q 97 222 155 287 q 213 352 293 390 z m 426 459 q 495 525 495 583 q 495 612 479 628 q 462 645 436 645 q 400 645 376 620 q 352 596 352 567 q 352 525 426 459 z m 346 331 q 252 256 252 169 q 252 128 276 103 q 299 78 335 78 q 383 78 412 111 q 441 144 441 184 q 441 201 435 219 q 428 237 405 266 q 381 295 369 307 z"},"\\":{"x_min":0,"x_max":603,"ha":603,"o":"m 445 -145 l 162 771 l 283 771 l 565 -145 z"},"e":{"x_min":0,"x_max":603,"ha":603,"o":"m 568 22 q 437 -12 342 -12 q 231 -12 163 42 q 94 95 94 203 q 94 291 142 375 q 190 459 268 500 q 346 542 435 542 q 526 542 576 492 q 627 442 627 354 q 627 318 619 278 l 608 225 l 250 225 q 249 212 249 204 q 249 158 289 127 q 329 96 395 96 q 480 96 590 134 z m 265 321 l 487 321 q 492 348 492 366 q 492 446 408 446 q 356 446 319 413 q 282 379 265 321 z"},"b":{"x_min":0,"x_max":603,"ha":603,"o":"m 60 0 l 214 771 l 359 771 l 311 530 l 285 430 l 291 430 q 320 467 338 483 q 355 499 380 514 q 406 529 429 535 q 453 542 479 542 q 551 542 593 494 q 635 445 635 359 q 635 260 590 164 q 549 78 485 33 q 420 -12 344 -12 q 302 -12 269 4 q 237 20 215 51 l 208 51 l 181 0 z m 235 150 q 250 129 275 115 q 301 101 329 101 q 355 101 380 114 q 404 126 418 146 q 442 180 459 233 q 475 287 475 329 q 475 370 455 389 q 436 408 404 408 q 373 408 341 389 q 309 370 269 323 z"},"%":{"x_min":0,"x_max":603,"ha":603,"o":"m 62 -18 l 604 741 l 685 741 l 143 -18 z m 215 361 q 159 361 131 393 q 103 425 103 488 q 103 549 129 607 q 155 665 195 694 q 235 723 287 723 q 345 723 374 691 q 403 660 403 596 q 403 536 377 479 q 352 421 312 391 q 273 361 215 361 z m 235 452 q 254 452 266 475 q 278 498 286 534 q 294 570 294 592 q 294 615 289 624 q 284 632 270 632 q 252 632 240 610 q 228 588 220 552 q 212 515 212 492 q 212 467 217 459 q 223 452 235 452 z m 456 0 q 400 0 372 32 q 344 63 344 127 q 344 188 370 245 q 396 303 436 332 q 476 361 528 361 q 586 361 615 330 q 644 298 644 235 q 644 174 618 117 q 593 60 553 30 q 514 0 456 0 z m 476 90 q 495 90 507 113 q 519 136 527 172 q 535 208 535 231 q 535 253 530 262 q 525 271 510 271 q 494 271 481 249 q 469 227 461 190 q 453 153 453 130 q 453 105 458 98 q 463 90 476 90 z"},"m":{"x_min":0,"x_max":603,"ha":603,"o":"m 362 0 l 241 0 l 312 353 q 317 380 317 389 q 317 410 302 410 q 271 410 231 343 l 163 0 l 42 0 l 148 530 l 269 530 l 242 428 l 249 428 q 274 475 310 508 q 345 542 381 542 q 411 542 430 523 q 450 504 450 463 q 450 450 447 428 l 453 428 q 477 476 509 509 q 542 542 579 542 q 605 542 626 523 q 646 505 646 462 q 646 432 631 354 l 561 0 l 440 0 l 510 353 q 516 380 516 389 q 516 410 500 410 q 470 410 430 343 z"},"#":{"x_min":0,"x_max":603,"ha":603,"o":"m 78 0 l 173 211 l 78 211 l 111 295 l 212 295 l 272 428 l 164 428 l 198 512 l 311 512 l 406 723 l 494 723 l 398 512 l 482 512 l 578 723 l 667 723 l 571 512 l 669 512 l 635 428 l 533 428 l 472 295 l 582 295 l 548 211 l 435 211 l 338 0 l 251 0 l 347 211 l 262 211 l 165 0 z m 300 295 l 385 295 l 444 428 l 359 428 z"},",":{"x_min":0,"x_max":603,"ha":603,"o":"m 188 -145 l 201 -78 q 247 -75 260 -60 q 274 -45 278 -23 l 283 0 l 217 0 l 250 168 l 419 168 l 392 32 q 377 -40 351 -77 q 324 -113 288 -129 q 252 -145 188 -145 z"},"n":{"x_min":0,"x_max":603,"ha":603,"o":"m 69 0 l 175 530 l 320 530 l 293 428 l 299 428 q 329 479 377 510 q 425 542 491 542 q 545 542 581 513 q 617 484 617 419 q 617 391 611 362 l 539 0 l 395 0 l 460 330 q 464 350 464 365 q 464 410 417 410 q 382 410 345 386 q 308 362 280 330 l 214 0 z"},"h":{"x_min":0,"x_max":603,"ha":603,"o":"m 69 0 l 224 771 l 368 771 l 320 530 l 293 428 l 299 428 q 329 479 377 510 q 425 542 491 542 q 545 542 581 513 q 617 484 617 419 q 617 392 611 362 l 539 0 l 395 0 l 460 330 q 464 350 464 365 q 464 410 417 410 q 382 410 345 386 q 308 362 280 330 l 214 0 z"},"z":{"x_min":0,"x_max":603,"ha":603,"o":"m 58 0 l 79 108 l 448 434 l 156 434 l 176 530 l 658 530 l 638 434 l 271 108 l 578 108 l 556 0 z"},"B":{"x_min":0,"x_max":603,"ha":603,"o":"m 67 0 l 211 723 l 467 723 q 581 723 618 688 q 654 653 654 596 q 654 533 617 481 q 580 428 489 389 q 565 354 588 311 q 611 269 611 226 q 611 133 541 66 q 471 0 347 0 z m 297 428 l 333 428 q 388 428 424 447 q 460 467 480 500 q 500 533 500 568 q 500 599 479 613 q 457 626 392 626 l 336 626 z m 230 96 l 309 96 q 363 96 393 114 q 423 131 440 162 q 457 193 457 229 q 457 276 420 304 q 383 332 314 332 l 278 332 z"},"K":{"x_min":0,"x_max":603,"ha":603,"o":"m 69 0 l 214 723 l 358 723 l 299 427 l 330 427 l 616 723 l 738 723 l 427 403 l 602 0 l 431 0 l 303 294 l 273 294 l 214 0 z"},"R":{"x_min":0,"x_max":603,"ha":603,"o":"m 67 0 l 211 723 l 486 723 q 569 723 613 687 q 656 650 656 582 q 656 536 636 490 q 616 444 578 403 q 541 362 477 331 l 596 0 l 430 0 l 324 295 l 271 295 l 211 0 z m 290 392 l 316 392 q 367 392 408 412 q 450 432 475 475 q 500 518 500 558 q 500 580 493 595 q 485 610 469 618 q 453 626 383 626 l 336 626 z"},"T":{"x_min":0,"x_max":603,"ha":603,"o":"m 229 0 l 354 626 l 137 626 l 157 723 l 735 723 l 716 626 l 499 626 l 374 0 z"},"P":{"x_min":0,"x_max":603,"ha":603,"o":"m 72 0 l 217 723 l 497 723 q 598 723 642 688 q 687 652 687 582 q 687 503 647 434 q 606 365 532 326 q 458 287 330 287 l 274 287 l 217 0 z m 293 383 l 329 383 q 380 383 426 400 q 471 417 500 463 q 529 509 529 552 q 529 576 520 592 q 511 608 490 617 q 468 626 396 626 l 342 626 z"},"|":{"x_min":0,"x_max":603,"ha":603,"o":"m 218 -145 l 401 771 l 510 771 l 327 -145 z"},"t":{"x_min":0,"x_max":603,"ha":603,"o":"m 541 13 q 449 -12 380 -12 q 315 -12 264 18 q 213 48 213 108 q 213 134 219 165 l 271 422 l 156 422 l 175 518 l 290 518 l 316 650 l 461 650 l 434 518 l 630 518 l 611 422 l 415 422 l 370 197 q 364 166 364 152 q 364 126 385 111 q 406 96 442 96 q 500 96 562 119 z"},"M":{"x_min":0,"x_max":603,"ha":603,"o":"m 41 0 l 186 723 l 352 723 l 384 398 l 385 398 l 552 723 l 706 723 l 562 0 l 453 0 l 564 555 l 562 555 l 388 193 l 277 193 l 250 555 l 248 555 l 137 0 z"},"g":{"x_min":0,"x_max":603,"ha":603,"o":"m 63 -163 l 96 -60 q 199 -104 272 -104 q 327 -104 366 -71 q 406 -39 419 26 l 440 126 l 435 126 q 396 63 348 31 q 301 0 244 0 q 165 0 126 52 q 86 104 86 184 q 86 288 137 384 q 178 461 241 502 q 304 542 377 542 q 417 542 450 527 q 482 512 506 482 l 518 482 l 540 530 l 660 530 l 567 66 q 554 1 533 -44 q 512 -90 470 -129 q 429 -167 378 -186 q 327 -205 270 -205 q 178 -205 63 -163 z m 454 225 l 486 385 q 452 419 433 426 q 414 434 391 434 q 339 434 308 396 q 283 365 266 318 q 249 270 249 223 q 249 177 269 158 q 289 139 319 139 q 354 139 387 160 q 421 182 454 225 z"},"j":{"x_min":0,"x_max":603,"ha":603,"o":"m 24 -183 l 47 -69 q 127 -108 191 -108 q 217 -108 239 -99 q 261 -89 273 -73 q 287 -56 293 -34 q 299 -12 308 32 l 388 434 l 195 434 l 215 530 l 552 530 l 454 40 q 440 -30 425 -69 q 409 -108 375 -139 q 339 -172 290 -188 q 242 -205 185 -205 q 121 -205 24 -183 z m 427 626 l 456 771 l 600 771 l 571 626 z"},"i":{"x_min":0,"x_max":603,"ha":603,"o":"m 290 0 l 376 434 l 183 434 l 203 530 l 540 530 l 434 0 z m 415 626 l 443 771 l 588 771 l 559 626 z"},"y":{"x_min":0,"x_max":603,"ha":603,"o":"m 12 -193 l 31 -96 l 92 -96 q 143 -96 175 -79 q 206 -62 234 -19 l 263 27 l 126 530 l 286 530 l 376 200 l 592 530 l 699 530 l 319 -52 q 275 -120 222 -156 q 169 -193 84 -193 z"},"@":{"x_min":0,"x_max":603,"ha":603,"o":"m 466 20 q 373 -18 300 -18 q 204 -18 144 48 q 83 113 83 234 q 83 359 141 482 q 199 604 292 672 q 384 741 498 741 q 577 741 618 703 q 658 665 658 596 q 658 561 650 520 l 590 217 l 638 217 l 624 145 l 491 145 l 521 294 q 466 208 418 172 q 369 137 327 137 q 291 137 268 166 q 245 195 245 247 q 245 325 279 406 q 312 486 371 539 q 429 592 500 592 q 532 592 572 578 q 572 631 543 649 q 515 666 471 666 q 389 666 322 607 q 256 548 212 446 q 168 344 168 246 q 168 158 213 109 q 258 61 323 61 q 391 61 483 106 z m 552 452 l 562 503 q 530 522 502 522 q 462 522 430 494 q 397 467 370 399 q 343 331 343 276 q 343 251 350 238 q 356 226 369 226 q 398 226 447 282 q 497 338 552 452 z"},".":{"x_min":0,"x_max":603,"ha":603,"o":"m 217 0 l 250 168 l 419 168 l 385 0 z"},"p":{"x_min":0,"x_max":603,"ha":603,"o":"m 19 -193 l 164 530 l 308 530 l 282 430 l 288 430 q 317 467 335 483 q 353 499 378 514 q 404 529 427 535 q 450 542 477 542 q 549 542 591 494 q 633 445 633 359 q 633 260 587 164 q 547 78 482 33 q 418 -12 342 -12 q 299 -12 267 4 q 234 20 212 51 l 206 51 l 202 0 l 164 -193 z m 232 150 q 247 129 273 115 q 299 101 326 101 q 353 101 377 114 q 401 126 416 146 q 440 180 456 233 q 473 287 473 329 q 473 370 453 389 q 433 408 401 408 q 370 408 338 389 q 307 370 267 323 z"},"X":{"x_min":0,"x_max":603,"ha":603,"o":"m 18 0 l 297 358 l 167 723 l 332 723 l 418 484 l 601 723 l 711 723 l 452 385 l 586 0 l 422 0 l 332 258 l 129 0 z"},"*":{"x_min":0,"x_max":603,"ha":603,"o":"m 297 286 l 196 358 l 343 474 q 353 452 377 445 z m 174 504 l 237 634 l 365 546 q 344 525 341 499 z m 391 562 l 379 723 l 513 723 l 438 562 q 426 566 415 566 q 405 566 391 562 z m 463 499 q 465 508 465 515 q 465 531 458 545 l 620 630 l 630 504 z m 427 286 l 401 444 q 425 450 445 470 l 553 362 z"},"Y":{"x_min":0,"x_max":603,"ha":603,"o":"m 226 0 l 287 306 l 145 723 l 310 723 l 412 424 l 636 723 l 747 723 l 431 306 l 370 0 z"},"c":{"x_min":0,"x_max":603,"ha":603,"o":"m 544 11 q 512 3 479 -2 q 445 -7 413 -10 q 381 -12 355 -12 q 234 -12 164 42 q 94 96 94 199 q 94 289 139 370 q 184 452 264 497 q 344 542 460 542 q 562 542 646 519 l 625 412 q 593 424 565 431 q 537 438 509 442 q 481 446 458 446 q 404 446 357 420 q 310 395 283 344 q 256 294 256 234 q 256 155 307 123 q 357 90 418 90 q 487 90 565 117 z"},"!":{"x_min":0,"x_max":603,"ha":603,"o":"m 229 0 l 253 121 l 397 121 l 374 0 z m 296 217 l 345 578 l 374 723 l 518 723 l 489 578 l 393 217 z"},"/":{"x_min":0,"x_max":603,"ha":603,"o":"m -25 -145 l 630 771 l 753 771 l 97 -145 z"},"[":{"x_min":0,"x_max":603,"ha":603,"o":"m 152 -145 l 335 771 l 708 771 l 689 675 l 448 675 l 304 -48 l 544 -48 l 525 -145 z"},"6":{"x_min":0,"x_max":603,"ha":603,"o":"m 670 719 l 649 611 q 586 645 528 645 q 449 645 386 584 q 322 524 290 388 q 329 422 356 438 q 384 453 410 460 q 436 468 462 468 q 526 468 567 423 q 608 378 608 304 q 608 227 570 149 q 532 72 469 27 q 405 -18 323 -18 q 199 -18 154 52 q 108 122 108 223 q 108 353 164 476 q 219 600 313 670 q 408 741 527 741 q 568 741 633 727 q 646 725 670 719 z m 333 78 q 367 78 395 103 q 422 128 439 177 q 456 226 456 273 q 456 309 439 330 q 422 352 392 352 q 338 352 300 300 q 261 249 261 172 q 261 125 281 102 q 302 78 333 78 z"},"r":{"x_min":0,"x_max":603,"ha":603,"o":"m 108 0 l 214 530 l 359 530 l 333 428 l 338 428 q 372 469 393 485 q 414 501 438 514 q 466 528 493 535 q 521 542 556 542 q 598 542 654 530 l 611 313 l 514 313 l 534 414 q 517 415 508 415 q 459 415 411 390 q 362 365 314 308 l 253 0 z"},"2":{"x_min":0,"x_max":603,"ha":603,"o":"m 80 0 l 104 121 q 150 173 205 223 l 232 247 l 313 323 q 386 390 428 449 q 471 509 471 561 q 471 600 444 619 q 417 639 379 639 q 308 639 222 598 l 244 707 q 336 741 437 741 q 528 741 579 697 q 629 652 629 580 q 629 526 599 474 q 569 422 476 346 l 408 290 q 303 206 245 121 l 538 121 l 514 0 z"},"{":{"x_min":0,"x_max":603,"ha":603,"o":"m 370 313 q 456 282 456 200 q 456 170 430 105 l 409 51 l 398 24 q 391 2 391 -9 q 391 -48 465 -48 l 521 -48 l 501 -145 l 436 -145 q 332 -145 290 -117 q 249 -90 249 -37 q 249 -4 275 57 l 307 129 q 326 175 326 203 q 326 232 303 249 q 280 265 219 265 l 161 265 l 181 361 l 238 361 q 290 361 320 373 q 349 385 365 412 q 380 438 380 497 l 377 569 q 377 631 385 654 q 392 677 407 698 q 436 736 485 753 q 534 771 619 771 l 684 771 l 665 675 l 609 675 q 565 675 549 667 q 532 659 523 644 q 514 628 514 603 l 514 575 l 514 521 q 514 451 496 415 q 479 379 446 353 q 414 327 370 313 z"},"9":{"x_min":0,"x_max":603,"ha":603,"o":"m 88 3 l 109 112 q 172 78 230 78 q 310 78 373 139 q 437 199 469 334 q 430 301 402 285 q 375 270 349 263 q 323 255 296 255 q 232 255 191 300 q 150 345 150 418 q 150 496 188 573 q 226 650 290 696 q 353 741 436 741 q 559 741 604 671 q 650 601 650 500 q 650 370 594 247 q 539 124 445 53 q 351 -18 231 -18 q 190 -18 125 -4 q 113 -1 88 3 z m 426 645 q 392 645 365 620 q 337 596 320 547 q 303 498 303 450 q 303 414 320 392 q 336 371 367 371 q 420 371 459 423 q 497 475 497 551 q 497 597 477 621 q 457 645 426 645 z"}," ":{"x_min":0,"x_max":603,"ha":603,"o":""},"I":{"x_min":0,"x_max":603,"ha":603,"o":"m 60 0 l 79 96 l 248 96 l 354 626 l 185 626 l 205 723 l 687 723 l 667 626 l 499 626 l 393 96 l 561 96 l 542 0 z"},"H":{"x_min":0,"x_max":603,"ha":603,"o":"m 48 0 l 193 723 l 337 723 l 278 425 l 495 425 l 554 723 l 699 723 l 554 0 l 410 0 l 476 328 l 258 328 l 193 0 z"},"4":{"x_min":0,"x_max":603,"ha":603,"o":"m 335 0 l 374 193 l 85 193 l 109 313 l 462 723 l 606 723 l 523 307 l 620 307 l 597 193 l 500 193 l 462 0 z m 219 307 l 397 307 l 451 576 z"},"~":{"x_min":0,"x_max":603,"ha":603,"o":"m 629 343 q 613 277 588 243 q 562 208 530 188 q 498 168 459 168 q 431 168 408 177 q 386 185 340 211 l 291 239 q 263 254 236 254 q 221 254 206 247 q 192 239 182 225 q 171 211 161 175 l 77 175 q 93 241 118 276 q 142 311 175 331 q 208 352 241 352 q 295 352 366 311 l 404 288 q 440 267 469 267 q 492 267 514 284 q 536 301 545 343 z"},"D":{"x_min":0,"x_max":603,"ha":603,"o":"m 42 0 l 187 723 l 445 723 q 564 723 617 671 q 671 619 671 513 q 671 388 625 263 q 578 139 495 69 q 413 0 267 0 z m 206 96 l 252 96 q 338 96 391 138 q 444 180 476 281 q 507 383 507 468 q 507 518 487 558 q 467 599 435 613 q 403 626 346 626 l 312 626 z"},"^":{"x_min":0,"x_max":603,"ha":603,"o":"m 71 145 l 446 723 l 589 145 l 490 145 l 402 502 l 168 145 z"},"0":{"x_min":0,"x_max":603,"ha":603,"o":"m 297 -18 q 205 -18 150 42 q 95 102 95 224 q 95 356 145 485 q 194 615 273 678 q 352 741 450 741 q 544 741 599 681 q 653 621 653 499 q 653 368 605 239 q 556 110 478 46 q 399 -18 297 -18 z m 318 78 q 366 78 402 122 q 438 166 472 312 q 506 459 506 540 q 506 610 480 627 q 453 645 432 645 q 384 645 348 602 q 311 559 277 412 q 243 264 243 183 q 243 131 261 104 q 280 78 318 78 z"},"F":{"x_min":0,"x_max":603,"ha":603,"o":"m 84 0 l 229 723 l 729 723 l 709 626 l 354 626 l 309 397 l 608 397 l 590 307 l 291 307 l 229 0 z"},"`":{"x_min":0,"x_max":603,"ha":603,"o":"m 451 626 l 334 771 l 480 771 l 547 626 z"},"k":{"x_min":0,"x_max":603,"ha":603,"o":"m 83 0 l 237 771 l 382 771 l 287 298 l 310 298 l 523 530 l 642 530 l 446 320 l 593 0 l 417 0 l 302 257 l 279 257 l 228 0 z"},"u":{"x_min":0,"x_max":603,"ha":603,"o":"m 639 530 l 533 0 l 389 0 l 415 103 l 409 103 q 380 52 332 20 q 284 -12 218 -12 q 164 -12 127 17 q 91 45 91 111 q 91 139 97 168 l 169 530 l 314 530 l 248 200 q 244 180 244 166 q 244 121 292 121 q 327 121 364 144 q 400 168 429 200 l 495 530 z"},"]":{"x_min":0,"x_max":603,"ha":603,"o":"m 576 771 l 393 -145 l 20 -145 l 39 -48 l 280 -48 l 424 675 l 183 675 l 203 771 z"},"U":{"x_min":0,"x_max":603,"ha":603,"o":"m 199 723 l 343 723 l 250 257 q 238 194 238 168 q 238 136 259 107 q 279 78 328 78 q 378 78 417 113 q 457 147 479 259 l 572 723 l 692 723 l 604 277 q 575 136 536 84 q 498 32 437 7 q 377 -18 306 -18 q 204 -18 149 28 q 94 75 94 155 q 94 200 105 257 z"},"o":{"x_min":0,"x_max":603,"ha":603,"o":"m 299 -12 q 198 -12 135 44 q 71 100 71 193 q 71 234 83 282 q 94 330 114 369 q 156 446 235 494 q 315 542 410 542 q 517 542 579 485 q 641 428 641 336 q 641 296 629 248 q 618 200 598 161 q 556 84 477 36 q 397 -12 299 -12 z m 319 84 q 381 84 420 131 q 454 172 469 234 q 485 295 485 342 q 485 390 461 418 q 437 446 392 446 q 363 446 336 433 q 310 420 292 399 q 258 359 243 297 q 227 235 227 188 q 227 140 251 112 q 275 84 319 84 z"},"N":{"x_min":0,"x_max":603,"ha":603,"o":"m 54 0 l 199 723 l 332 723 l 502 256 l 503 256 l 596 723 l 692 723 l 548 0 l 422 0 l 248 482 l 247 482 l 150 0 z"},"+":{"x_min":0,"x_max":603,"ha":603,"o":"m 256 0 l 299 214 l 85 214 l 103 304 l 316 304 l 359 518 l 450 518 l 407 304 l 621 304 l 603 214 l 389 214 l 346 0 z"},"G":{"x_min":0,"x_max":603,"ha":603,"o":"m 572 15 q 533 3 497 -3 q 460 -10 424 -14 q 389 -18 359 -18 q 241 -18 161 51 q 82 120 82 254 q 82 376 134 490 q 187 604 283 672 q 379 741 531 741 q 629 741 712 716 l 689 602 q 666 615 637 624 q 609 633 577 639 q 546 645 521 645 q 447 645 384 601 q 321 558 280 465 q 239 372 239 277 q 239 189 286 137 q 332 85 419 85 q 434 85 448 87 l 500 343 l 638 343 z"},"q":{"x_min":0,"x_max":603,"ha":603,"o":"m 373 -193 l 411 0 l 437 100 l 431 100 q 402 63 384 47 q 366 31 341 17 q 315 1 292 -5 q 269 -12 243 -12 q 171 -12 129 36 q 86 84 86 171 q 86 270 132 366 q 172 452 237 497 q 301 542 378 542 q 420 542 453 526 q 485 511 507 479 l 519 479 l 541 530 l 662 530 l 517 -193 z m 487 379 q 472 400 446 415 q 420 430 393 430 q 366 430 342 417 q 318 404 303 384 q 279 351 263 297 q 246 244 246 201 q 246 161 266 142 q 286 122 318 122 q 350 122 381 142 q 413 161 453 207 z"},"d":{"x_min":0,"x_max":603,"ha":603,"o":"m 411 0 l 437 100 l 431 100 q 402 63 384 47 q 366 31 341 17 q 315 1 292 -5 q 269 -12 243 -12 q 171 -12 129 36 q 86 84 86 171 q 86 270 132 366 q 172 452 237 497 q 301 542 378 542 q 420 542 453 526 q 485 511 507 479 l 513 479 l 517 530 l 565 771 l 710 771 l 556 0 z m 487 379 q 472 400 446 415 q 420 430 393 430 q 366 430 342 417 q 318 404 304 384 q 279 351 263 297 q 246 244 246 201 q 246 161 266 141 q 286 122 318 122 q 350 122 382 142 q 413 161 453 207 z"},"1":{"x_min":0,"x_max":603,"ha":603,"o":"m 108 0 l 127 96 l 272 96 l 378 626 l 233 626 l 250 711 l 545 741 l 417 96 l 562 96 l 542 0 z"},"5":{"x_min":0,"x_max":603,"ha":603,"o":"m 127 8 l 149 116 q 206 78 257 78 q 321 78 362 128 q 402 177 402 242 q 402 297 362 329 q 323 360 223 360 l 210 360 l 282 723 l 656 723 l 632 603 l 363 603 l 313 454 q 452 440 506 384 q 561 328 561 254 q 561 187 519 122 q 478 58 409 20 q 341 -18 261 -18 q 235 -18 208 -14 q 181 -10 127 8 z"}}}
